<svg data-name="Layer 1" xmlns="http://www.w3.org/2000/svg" width="842.17" height="568.852"><path d="M538.17 568.852v-72.34s28.191 51.286 0 72.34Z" fill="#f1f1f1"/><path d="m539.911 568.84-53.29-48.922s56.846 13.916 53.29 48.922Z" fill="#f1f1f1"/><path id="f54375ad-557d-4249-95e2-413e25c77bd8" data-name="Rectangle 62" fill="#e5e5e5" d="M.359 23.079H842.17v399.454H.359z"/><path id="eb84611c-d49d-4ce2-b538-4fee0a7e188d" data-name="Rectangle 75" fill="#fff" d="M24.431 57.333h793.668V390.61H24.431z"/><path id="a33b5263-04c3-449f-a8ad-1420252c1e48" data-name="Rectangle 80" fill="#6c63ff" d="M0 0h841.811v35.763H0z"/><circle id="a01a8c4b-bf8b-4728-9381-d6cbaed15ee5" data-name="Ellipse 90" cx="26.576" cy="17.815" r="6.628" fill="#fff"/><circle id="a70f271b-ee75-4447-9507-72af025f0784" data-name="Ellipse 91" cx="51.736" cy="17.815" r="6.628" fill="#fff"/><circle id="b6ae4294-4107-4abd-ba05-1d458fcbc8d7" data-name="Ellipse 92" cx="76.896" cy="17.815" r="6.628" fill="#fff"/><path id="a98f5d70-28fc-4129-b4f3-463d07786f2f-805" data-name="Path 680" d="M332.911 298.52a3.268 3.268 0 0 0 0 6.535h89.293a3.268 3.268 0 1 0 0-6.536Z" transform="translate(-178.451 -165.316)" fill="#3f3d56"/><path id="a5717240-4d8d-4c71-83bc-6deeb889f166-806" data-name="Path 680" d="M282.411 343.52a3.268 3.268 0 0 0 0 6.535h190.293a3.268 3.268 0 1 0 0-6.536Z" transform="translate(-178.451 -165.316)" fill="#ccc"/><path id="f9c6f13d-6e3a-4758-9844-a0f5d5c969ce-807" data-name="Path 680" d="M282.411 369.52a3.268 3.268 0 0 0 0 6.535h190.293a3.268 3.268 0 1 0 0-6.536Z" transform="translate(-178.451 -165.316)" fill="#ccc"/><path id="bf808dfd-2bb2-4793-b7c6-d8671bf7e9b4-808" data-name="Path 680" d="M282.411 395.52a3.268 3.268 0 0 0 0 6.535h190.293a3.268 3.268 0 1 0 0-6.536Z" transform="translate(-178.451 -165.316)" fill="#ccc"/><path id="e27373f7-fd0b-426a-8828-0829b084b689-809" data-name="Path 680" d="M282.411 421.52a3.268 3.268 0 0 0 0 6.535h190.293a3.268 3.268 0 1 0 0-6.536Z" transform="translate(-178.451 -165.316)" fill="#ccc"/><path id="b4c6c7b3-e22e-4fba-a4f6-80d19d07dbd3-810" data-name="Path 680" d="M282.411 447.52a3.268 3.268 0 0 0 0 6.535h190.293a3.268 3.268 0 1 0 0-6.536Z" transform="translate(-178.451 -165.316)" fill="#ccc"/><path id="ebf0dc46-a6ad-47cb-a3de-ddb71e9e94e3-811" data-name="Path 680" d="M282.411 473.52a3.268 3.268 0 0 0 0 6.535h190.293a3.268 3.268 0 1 0 0-6.536Z" transform="translate(-178.451 -165.316)" fill="#ccc"/><path d="M731.71 316.138H443.606a7.271 7.271 0 0 1-7.264-7.263V139.403a7.271 7.271 0 0 1 7.264-7.263h288.102a7.271 7.271 0 0 1 7.263 7.263v169.472a7.271 7.271 0 0 1-7.263 7.263Z" fill="#f1f1f1"/><path d="M769.61 354.9H481.507a7.271 7.271 0 0 1-7.263-7.263V178.165a7.271 7.271 0 0 1 7.263-7.263H769.61a7.271 7.271 0 0 1 7.263 7.263v169.472a7.271 7.271 0 0 1-7.263 7.263Z" fill="#fff"/><path d="M769.61 357.372H481.506a9.746 9.746 0 0 1-9.735-9.735V178.165a9.746 9.746 0 0 1 9.735-9.735h288.102a9.746 9.746 0 0 1 9.735 9.735v169.472a9.746 9.746 0 0 1-9.735 9.735ZM481.506 173.373a4.797 4.797 0 0 0-4.792 4.792v169.472a4.797 4.797 0 0 0 4.792 4.792h288.102a4.797 4.797 0 0 0 4.792-4.792V178.165a4.797 4.797 0 0 0-4.792-4.792Z" fill="#3f3d56"/><circle cx="625.17" cy="285.43" r="25" fill="#ff6583"/><path d="M673.398 261.379a16.099 16.099 0 0 0-23.025-.411l-81.08 81.08c-10.386 10.434-21.228-5.525-28.156-11.961-16.66-16.477-34.655 14.419-45.854 23.267h260.55v-3.317Z" fill="#6c63ff"/><path d="m352.23 359.66-4.385-60.753 7.874-56.932-22.362-1.51-4.414 62.89 12.475 59.139a8.798 8.798 0 1 0 10.811-2.833Z" fill="#9f616a"/><path d="m330.504 248.648 5.25-22.726a17.497 17.497 0 0 1 34.436 5.897l-2.892 25.68Z" fill="#cbcbcb"/><path fill="#9f616a" d="M371.903 557.597h10.542l5.015-40.664-15.559.001.002 40.663z"/><path d="M369.213 554.155h20.762a13.232 13.232 0 0 1 13.232 13.23v.43l-33.993.001Z" fill="#2f2e41"/><path fill="#9f616a" d="m424.424 557.252 10.135-2.903-6.375-40.473-14.958 4.285 11.198 39.091z"/><path d="m420.891 554.684 19.96-5.718a13.232 13.232 0 0 1 16.362 9.076l.119.413-32.679 9.361ZM366.205 542.838l4.904-123.178-12.736-55.745c-17.139-28.735 1.35-74.57 1.54-75.03l.068-.167.18-.025 44.832-6.074.63 1.445a214.691 214.691 0 0 1 13.947 127.517l-4.666 23.865 23.061 93.11-21.825 10.914-16.746-43.425-11.319 44.429Z" fill="#2f2e41"/><path d="m354.008 300.31-14.626-42.855c-9.092-16.012-3.325-30.228 3.114-39.333 6.954-9.833 7.372-15.347 7.464-15.408l.074-.049 19.216-.582 17.785 18.071c1.118-.437 10.568 22.85 9.767 24.02l12.42 40.153Z" fill="#cbcbcb"/><path d="m472.434 307.722-48.18-37.269-37.154-43.849-16.045 15.65 43.9 45.247 52.377 30.164a8.798 8.798 0 1 0 5.102-9.943Z" fill="#9f616a"/><path d="m366.496 258.11-13.425-19.073a17.497 17.497 0 0 1 27.367-21.717l17.2 19.287Z" fill="#cbcbcb"/><circle cx="357.382" cy="174.009" r="22.819" fill="#9f616a"/><path d="M380.585 162.433H344.35v-15.794c7.953-3.16 15.735-5.847 20.44 0a15.794 15.794 0 0 1 15.794 15.794Z" fill="#2f2e41"/><path d="M349.345 142.852c-33.198-.907-26.912 53.785-26.912 53.785s6.264.829 9.122 1.315l3.451-1.943 3.714 2.435c1.705.009 3.497-.024 5.354-.059l1.702-3.505 3.797 3.442c6.91.01 25.666.201 25.666.201s11.303-54.656-25.894-55.671Z" fill="#2f2e41"/><path d="M618.182 568.43h-381a1 1 0 0 1 0-2h381a1 1 0 0 1 0 2Z" fill="#cbcbcb"/></svg>